<svg width="65" height="65" viewBox="0 0 65 65" fill="none" xmlns="http://www.w3.org/2000/svg">
<rect x="0.5" y="0.5" width="64" height="64" fill="#262626"/>
<path d="M26.1848 19.022L23.9188 19H22.4668V4.744H25.9208C26.5368 4.744 27.0428 4.766 27.4388 4.81C27.8495 4.83933 28.2675 4.93467 28.6928 5.096C29.1328 5.24267 29.4775 5.45533 29.7268 5.734C30.2988 6.37933 30.5848 7.406 30.5848 8.814C30.5848 10.2073 30.1962 11.1607 29.4188 11.674C29.7122 11.7913 29.9395 11.9087 30.1008 12.026C30.2622 12.1287 30.4528 12.2973 30.6728 12.532C31.0688 13.0013 31.2668 13.9327 31.2668 15.326C31.2668 16.7047 30.8635 17.6653 30.0568 18.208C29.2648 18.7507 27.9742 19.022 26.1848 19.022ZM23.9188 17.68L26.9548 17.702C27.9962 17.702 28.7222 17.5553 29.1328 17.262C29.5435 16.9687 29.7488 16.2647 29.7488 15.15C29.7488 13.2873 29.0155 12.356 27.5488 12.356H23.9188V17.68ZM25.6788 6.086H23.9188V11.124H28.0108C28.7295 11.124 29.0888 10.332 29.0888 8.748C29.0888 7.85333 29.0082 7.274 28.8468 7.01C28.6855 6.746 28.5315 6.56267 28.3848 6.46C28.2528 6.35733 28.0328 6.27667 27.7248 6.218C27.2848 6.13 26.6028 6.086 25.6788 6.086ZM35.9931 19H34.5411V4.744H36.0151V12.048L37.5771 10.222C38.6184 9.00467 39.6524 7.78733 40.6791 6.57L42.2411 4.744H43.8471L38.1271 11.498L44.7051 19H42.8791L37.2471 12.532L35.9931 14.006V19Z" fill="white"/>
<path d="M26.7595 39.22C26.7301 39.22 26.6275 39.22 26.4515 39.22C26.2755 39.22 26.0995 39.2127 25.9235 39.198C25.7475 39.198 25.4761 39.1687 25.1095 39.11C24.7428 39.066 24.4348 38.9927 24.1855 38.89C23.9361 38.7727 23.6501 38.5967 23.3275 38.362C23.0195 38.1273 22.7701 37.8487 22.5795 37.526C22.0955 36.7487 21.8535 35.744 21.8535 34.512V24.744H23.3275V34.512C23.3715 36.8147 24.5155 37.966 26.7595 37.966C27.7128 37.966 28.5048 37.6873 29.1355 37.13C29.7661 36.5727 30.0815 35.7293 30.0815 34.6V24.744H31.5115L31.4895 34.556C31.4895 37.6653 29.9128 39.22 26.7595 39.22ZM34.3122 24.744H35.9622L39.7022 30.618L43.4202 24.744H45.0922L40.6922 31.564L45.5102 39H43.9262L39.7022 32.488L35.4782 39H33.8942L38.7122 31.564L34.3122 24.744Z" fill="white"/>
<path d="M27.2267 56.832V58.218L19.9887 54.5V53.18L27.2267 49.484V50.87L21.8587 53.576C21.668 53.664 21.5727 53.752 21.5727 53.84C21.5727 53.9133 21.624 53.9793 21.7267 54.038C21.844 54.082 23.6773 55.0133 27.2267 56.832ZM29.2775 59.868L36.4715 43.698L37.6375 44.204L30.4655 60.374L29.2775 59.868ZM45.3112 53.774C45.3112 53.7593 45.3039 53.7373 45.2892 53.708C45.2452 53.6787 45.1939 53.6567 45.1352 53.642C45.0912 53.6127 45.0545 53.5907 45.0252 53.576L39.6572 50.87V49.484L46.8952 53.18V54.5L39.6572 58.218V56.832C42.4879 55.38 44.2772 54.4633 45.0252 54.082C45.2012 53.9647 45.2965 53.884 45.3112 53.84V53.774Z" fill="white"/>
<rect x="0.5" y="0.5" width="64" height="64" stroke="white"/>
</svg>
